<svg width="16" height="16" viewBox="0 0 16 16" fill="none" xmlns="http://www.w3.org/2000/svg">
<g clip-path="url(#clip0_301_498)">
<path d="M2.52153 2.05368C2.12292 1.89899 1.67083 2.08415 1.50799 2.46852C1.17986 3.25134 1 4.1068 1 4.99977C1 5.89274 1.17986 6.74821 1.50799 7.53102C1.6684 7.9154 2.12292 8.10055 2.52153 7.94587C2.92014 7.79118 3.11215 7.3529 2.95174 6.96852C2.69653 6.36149 2.55556 5.69821 2.55556 4.99977C2.55556 4.30134 2.69653 3.63805 2.95174 3.03102C3.11215 2.64665 2.92014 2.21071 2.52153 2.05368ZM13.4785 2.05368C13.0799 2.21071 12.8878 2.64665 13.0483 3.03102C13.3035 3.63805 13.4444 4.30134 13.4444 4.99977C13.4444 5.69821 13.3035 6.36149 13.0483 6.96852C12.8878 7.3529 13.0799 7.78883 13.4785 7.94587C13.8771 8.1029 14.3292 7.9154 14.492 7.53102C14.8201 6.74821 15 5.89274 15 4.99977C15 4.1068 14.8201 3.25134 14.492 2.46852C14.3292 2.08415 13.8771 1.89899 13.4785 2.05368ZM9.26632 5.87165C9.44861 5.62555 9.55556 5.32555 9.55556 4.99977C9.55556 4.17243 8.85799 3.49977 8 3.49977C7.14201 3.49977 6.44444 4.17243 6.44444 4.99977C6.44444 5.32555 6.55139 5.62555 6.73368 5.87165L3.40382 12.9404C3.22639 13.3177 3.39896 13.7631 3.79028 13.9341C4.1816 14.1052 4.6434 13.9388 4.82083 13.5615L5.3191 12.4998H10.6809L11.1816 13.5591C11.359 13.9365 11.8208 14.1029 12.2122 13.9318C12.6035 13.7607 12.776 13.3154 12.5986 12.9381L9.26632 5.87165ZM9.97361 10.9998H6.02639L6.37882 10.2498H9.62118L9.97361 10.9998ZM8 6.81149L8.91389 8.74977H7.08611L8 6.81149ZM4.9691 3.72477C5.09792 3.44118 4.96424 3.10837 4.66771 2.98415C4.37118 2.85993 4.02847 2.98883 3.89965 3.27477C3.66146 3.80446 3.52778 4.38805 3.52778 4.99977C3.52778 5.61149 3.66146 6.19509 3.89965 6.72477C4.02847 7.00837 4.37361 7.13962 4.66771 7.0154C4.96181 6.89118 5.09792 6.55837 4.9691 6.27477C4.79167 5.88571 4.69444 5.45446 4.69444 4.99977C4.69444 4.54509 4.79167 4.11384 4.9691 3.72477ZM12.1003 3.27477C11.9715 2.99118 11.6264 2.85993 11.3323 2.98415C11.0382 3.10837 10.9021 3.44118 11.0309 3.72477C11.2083 4.11384 11.3056 4.54509 11.3056 4.99977C11.3056 5.45446 11.2083 5.88571 11.0309 6.27477C10.9021 6.55837 11.0358 6.89118 11.3323 7.0154C11.6288 7.13962 11.9715 7.01071 12.1003 6.72477C12.3385 6.19509 12.4722 5.61149 12.4722 4.99977C12.4722 4.38805 12.3385 3.80446 12.1003 3.27477Z" fill="black"/>
</g>
<defs>
<clipPath id="clip0_301_498">
<rect width="14" height="12" fill="white" transform="translate(1 2)"/>
</clipPath>
</defs>
</svg>
